{"title":"Vanishing Waves 2013 BRRip 720p x264 AAC - PRiSTiNE [P2PDL]","uid":8980780,"size":737256269,"categoryP":"video","categoryS":"hd___movies","magnet":"?xt=urn:btih:712cb70e295ad7a252646ab397c0420a2084dc9a&amp;dn=Vanishing+Waves+2013+BRRip+720p+x264+AAC+-+PRiSTiNE+%5BP2PDL%5D&amp;tr=udp%3A%2F%2Ftracker.openbittorrent.com%3A80&amp;tr=udp%3A%2F%2Fopen.demonii.com%3A1337&amp;tr=udp%3A%2F%2Ftracker.coppersurfer.tk%3A6969&amp;tr=udp%3A%2F%2Fexodus.desync.com%3A6969","seeders":1,"leechers":0,"uploader":"ValidusVyto","files":-1,"time":1380561115,"description":"_______ Visit us at our Semi Public Bittorrent Community ________\n  &lt;a href=&quot;\nhttp://p2pdl.com&quot; rel=&quot;nofollow&quot; target=&quot;_NEW&quot;&gt;\nhttp://p2pdl.com&lt;/a&gt;  _____________________________ &lt;a href=&quot; http://p2pdl.com&quot; rel=&quot;nofollow&quot; target=&quot;_NEW&quot;&gt; http://p2pdl.com&lt;/a&gt;\n\n\n\nVanishing Waves 2013 BRRip 720p x264 AAC - PRiSTiNE\n\n\nOriginal Title: Aurora\nGenre: Romance | Sci-Fi | Thriller\nPlot: A neuron-transfer scientist experiments with the thoughts of a comatose young\nwoman. \nDirector: Kristina Buozyte\nStars: Jurga Jutaite, Marius Jampolskis, Brice Fournier.\nRated: N/a\n\nIMDb: &lt;a href=&quot;\nhttp://www.imdb.com/title/tt2208216/&quot; rel=&quot;nofollow&quot; target=&quot;_NEW&quot;&gt;\nhttp://www.imdb.com/title/tt2208216/&lt;/a&gt;\n\n\nFormat                         : MPEG-4\nFile size                      : 696 MiB\nDuration                       : 1h 59mn\nOverall bit rate               : 811 Kbps\n\nVideo\nFormat                         : AVC\nBit rate                       : 729 Kbps\nWidth                          : 1 280 pixels\nHeight                         : 544 pixels\nDisplay aspect ratio           : 2.35:1\nFrame rate mode                : Constant\nFrame rate                     : 23.976 fps\nBit depth                      : 10 bits\nStream size                    : 626 MiB (90%)\nWriting library                : x264 core 138 r2358\n\nAudio\nFormat                         : AAC\nBit rate                       : 79.9 Kbps\nChannel(s)                     : 2 channels\nChannel positions              : Front: L R\nSampling rate                  : 48.0 KHz\nStream size                    : 68.6 MiB (10%)\nLanguage                       : Lithuanian\n\nSubtitle                       : Yes (English)\n\nSource                         : 720p.BluRay.DTS.x264-PublicHD\n &lt;a href=&quot;\nhttp://ultraimg.com/images/UZaFe.png&quot; rel=&quot;nofollow&quot; target=&quot;_NEW&quot;&gt;\nhttp://ultraimg.com/images/UZaFe.png&lt;/a&gt; &lt;a href=&quot;\nhttp://ultraimg.com/images/s9Dxp.png&quot; rel=&quot;nofollow&quot; target=&quot;_NEW&quot;&gt;\nhttp://ultraimg.com/images/s9Dxp.png&lt;/a&gt; &lt;a href=&quot;\nhttp://ultraimg.com/images/3yjNC.png&quot; rel=&quot;nofollow&quot; target=&quot;_NEW&quot;&gt;\nhttp://ultraimg.com/images/3yjNC.png&lt;/a&gt; &lt;a href=&quot;\nhttp://ultraimg.com/images/3hjzC.png&quot; rel=&quot;nofollow&quot; target=&quot;_NEW&quot;&gt;\nhttp://ultraimg.com/images/3hjzC.png&lt;/a&gt; &lt;a href=&quot;\nhttp://ultraimg.com/images/jvmEM.png&quot; rel=&quot;nofollow&quot; target=&quot;_NEW&quot;&gt;\nhttp://ultraimg.com/images/jvmEM.png&lt;/a&gt; &lt;a href=&quot;\nhttp://ultraimg.com/images/CkX3.png&quot; rel=&quot;nofollow&quot; target=&quot;_NEW&quot;&gt;\nhttp://ultraimg.com/images/CkX3.png&lt;/a&gt;\n\n----------------------------------------------------------------------------------------------------\n\n\nEncoded using revolutionary 10bit encoding, which enables us to provide you more crispier \nand sharper images at small sizes, just make sure you follow our instructions without a fault.\nRecommend to you to use latest version of VLC player. Install K-Lite Codec Pack or shark007 codecs\nin case of any kind of problem in playback (For non-VLC Media Player users). Alternatively, install\nCore AVC codecs, the fastest decoder that there is coupled with Community Center Codec Pack and play\non Windows Media Player Classic. Check sample to be sure.\nEnjoy!\n\nEncoder Notes:Looking For Early Access To Anything You Can Provide DVDScr, R5, DVDR, BluRay, Direct\nAudio, Music Releases and Seedboxes. We require dedicated servers, so as to do more \nand fast releases of movies.\nIf You Got anything to offer please contact us at &quot;&lt;a class=&quot;__cf_email__&quot; href=&quot;/cdn-cgi/l/email-protection&quot; data-cfemail=&quot;cbbbb9ac8ba3beb8a3e5a8a4a6&quot;&gt;[email&amp;#160;protected]&lt;/a&gt;&lt;script cf-hash='f9e31' type=&quot;text/javascript&quot;&gt;\n/* &lt;![CDATA[ */!function(){try{var t=&quot;currentScript&quot;in document?document.currentScript:function(){for(var t=document.getElementsByTagName(&quot;script&quot;),e=t.length;e--;)if(t[e].getAttribute(&quot;cf-hash&quot;))return t[e]}();if(t&amp;&amp;t.previousSibling){var e,r,n,i,c=t.previousSibling,a=c.getAttribute(&quot;data-cfemail&quot;);if(a){for(e=&quot;&quot;,r=parseInt(a.substr(0,2),16),n=2;a.length-n;n+=2)i=parseInt(a.substr(n,2),16)^r,e+=String.fromCharCode(i);e=document.createTextNode(e),c.parentNode.replaceChild(e,c)}}}catch(u){}}();/* ]]&gt; */&lt;/script&gt;&quot;.\n\nFacebook Fan Page:  \nSearch P2PDL on FB and hit like!!!\n\nFor more of our team uploads visit @                                             &lt;a href=&quot; http://thepiratebay.se/user/vitamin_x&quot; rel=&quot;nofollow&quot; target=&quot;_NEW&quot;&gt; http://thepiratebay.se/user/vitamin_x&lt;/a&gt;","torrent":{"xt":"urn:btih:712cb70e295ad7a252646ab397c0420a2084dc9a","amp;dn":"Vanishing+Waves+2013+BRRip+720p+x264+AAC+-+PRiSTiNE+%5BP2PDL%5D","amp;tr":["udp%3A%2F%2Ftracker.openbittorrent.com%3A80","udp%3A%2F%2Fopen.demonii.com%3A1337","udp%3A%2F%2Ftracker.coppersurfer.tk%3A6969","udp%3A%2F%2Fexodus.desync.com%3A6969"],"infoHash":"712cb70e295ad7a252646ab397c0420a2084dc9a","infoHashBuffer":{"type":"Buffer","data":[113,44,183,14,41,90,215,162,82,100,106,179,151,192,66,10,32,132,220,154]},"announce":[],"urlList":[]}}